<svg xmlns="http://www.w3.org/2000/svg" xmlns:xlink="http://www.w3.org/1999/xlink" width="500" zoomAndPan="magnify" viewBox="0 0 375 374.999991" height="500" preserveAspectRatio="xMidYMid meet" version="1.0"><defs><g/></defs><g fill="#bb1414" fill-opacity="1"><g transform="translate(104.347337, 217.439982)"><g><path d="M 1.828125 0 L 1.828125 -95.734375 L 31.390625 -95.734375 C 36.085938 -95.734375 40.367188 -95.453125 44.234375 -94.890625 C 48.109375 -94.328125 51.441406 -93.242188 54.234375 -91.640625 C 57.023438 -90.046875 59.179688 -87.757812 60.703125 -84.78125 C 62.234375 -81.800781 63 -77.921875 63 -73.140625 L 63 -44.703125 C 62.945312 -40.054688 62.144531 -36.289062 60.59375 -33.40625 C 59.050781 -30.519531 56.929688 -28.289062 54.234375 -26.71875 C 51.535156 -25.144531 48.425781 -24.0625 44.90625 -23.46875 C 41.382812 -22.882812 37.582031 -22.59375 33.5 -22.59375 L 32.03125 -22.59375 L 32.03125 0 Z M 30.546875 -40.75 L 32.234375 -40.75 C 33.078125 -40.75 33.675781 -40.972656 34.03125 -41.421875 C 34.382812 -41.867188 34.5625 -42.703125 34.5625 -43.921875 L 34.5625 -72.296875 C 34.5625 -73.515625 34.394531 -74.34375 34.0625 -74.78125 C 33.738281 -75.226562 33.082031 -75.453125 32.09375 -75.453125 L 30.546875 -75.453125 Z M 30.546875 -40.75 "/></g></g></g><g fill="#bb1414" fill-opacity="1"><g transform="translate(168.68028, 217.439982)"><g><path d="M 1.828125 0 L 1.828125 -95.734375 L 33.15625 -95.734375 C 43.894531 -95.734375 52 -93.300781 57.46875 -88.4375 C 62.9375 -83.582031 65.671875 -76.394531 65.671875 -66.875 L 65.671875 -28.9375 C 65.671875 -19.40625 62.9375 -12.195312 57.46875 -7.3125 C 52 -2.4375 43.914062 0 33.21875 0 Z M 31.046875 -23.515625 L 32.65625 -23.515625 C 33.738281 -23.515625 34.40625 -23.863281 34.65625 -24.5625 C 34.914062 -25.269531 35.046875 -26.675781 35.046875 -28.78125 L 35.046875 -66.734375 C 35.046875 -68.929688 34.914062 -70.367188 34.65625 -71.046875 C 34.40625 -71.734375 33.738281 -72.078125 32.65625 -72.078125 L 31.046875 -72.078125 Z M 31.046875 -23.515625 "/></g></g></g><g fill="#bb1414" fill-opacity="1"><g transform="translate(235.687896, 217.439982)"><g><path d="M 1.828125 0 L 1.828125 -95.734375 L 49.125 -95.734375 L 49.125 -75.8125 L 32.03125 -75.8125 L 32.03125 -53.140625 L 45.828125 -53.140625 L 45.828125 -33.578125 L 32.03125 -33.578125 L 32.03125 -0.078125 Z M 1.828125 0 "/></g></g></g></svg>